<mxfile host="app.diagrams.net" modified="2023-04-27T10:02:01.449Z" agent="Mozilla/5.0 (Windows NT 10.0; Win64; x64) AppleWebKit/537.36 (KHTML, like Gecko) Chrome/112.0.0.0 Safari/537.36" version="21.2.3" etag="tIj8KY2_ULAGxYhCWTS2" type="github">
  <diagram name="Page-1" id="HTRT8-ce6DChUPgs-GvR">
    <mxGraphModel>
      <root>
        <mxCell id="0" />
        <mxCell id="1" parent="0" />
      </root>
    </mxGraphModel>
  </diagram>
</mxfile>
